<svg xmlns="http://www.w3.org/2000/svg" viewBox="0 0 39 39">
    <circle cx="19.5" cy="19.5" r="19.5" fill="#DB001B" fill-rule="nonzero"/>
    <path fill="#FFF" fill-rule="nonzero"
          d="M22.2 18.454c-1.154 0-2 .923-2 2 0 1.154.923 2 2 2 1.154 0 2-.923 2-2s-.923-2-2-2Zm-14-2.1c-1.6 0-3 1.3-3 3 0 1.6 1.3 3 3 3s3-1.3 3-3-1.4-3-3-3Zm8.5 10.255c-.8 0-1.5.65-1.5 1.5 0 .8.65 1.5 1.5 1.5s1.5-.65 1.5-1.5-.7-1.5-1.5-1.5Zm9.846-4.983c-1.651 1.54-1.22 2.285-1.22 2.285s5.131-1.875 6.693-7.389c-.713-1.804-.757-3.175-4.946-6.06.65-.342.764-.977.28-1.496-.44-.472-1.084-.312-1.509.084-.424.396-.632 1.119.38 2.204.792.85 3.862 3.101 4.61 5.227-.728 2.53-1.457 2.505-4.288 5.145Zm-2.075 3.877c-1.4-1.9-3.8-1.5-4.6-1.4-.2-1.1-1.2-2.3-1.5-2-.3.3-.3 3.1.8 3.8.9.6 3.4-.3 3.4 2.4 0 1.7-.4 3-2.6 3-1.1 0-1.7-.6-1.1.7.7 1.5 4.1 1 5.3-1.3.5-1.1 1.4-3.7.3-5.2Zm-12.366-.574c-.16.71-.269 1.025-.174 1.323.189.597.793.069 1.393-.94 1.036-1.784 2.426-7.788 2.802-11.66.366-.247 4.785 1.718 6.294 1.424.68-.097 1.906-1.285.344-3.127-.276.066-.182.364-1.086.13-3.326-1.135-6.194-2.698-7.66-1.71-.88.594-.404 2.565-.897 7.843-.373 1.82-.466 4.054-1.016 6.717Z"/>
</svg>
