<svg xmlns="http://www.w3.org/2000/svg" viewBox="0 0 135 39">
    <path fill="#181818"
          d="M66.88 9.32h-.478a21.918 21.918 0 0 0-1.105-.284 6.4 6.4 0 0 0-1.46-.159c-1.25 0-2.096.224-2.538.672-.442.448-.663 1.315-.663 2.6v.16h4.917v4.316h-4.705v15.548H54.48V16.625h-2.724v-4.316h2.724v-.549c0-2.429.646-4.25 1.937-5.465 1.291-1.215 3.246-1.822 5.864-1.822.943 0 1.798.032 2.564.097.767.065 1.445.15 2.035.256V9.32Zm16.81 0h-.478a21.918 21.918 0 0 0-1.105-.284 6.4 6.4 0 0 0-1.46-.159c-1.25 0-2.096.224-2.538.672-.442.448-.663 1.315-.663 2.6v.16h4.917v4.316h-4.705v15.548H71.29V16.625h-2.724v-4.316h2.724v-.549c0-2.429.646-4.25 1.937-5.465 1.291-1.215 3.246-1.822 5.864-1.822.943 0 1.798.032 2.565.097.766.065 1.444.15 2.034.256V9.32Zm24.24 12.93c0 3.266-.953 5.84-2.857 7.72-1.905 1.882-4.579 2.822-8.022 2.822-3.444 0-6.118-.94-8.022-2.821-1.905-1.881-2.857-4.455-2.857-7.721 0-3.29.958-5.873 2.875-7.748 1.916-1.875 4.584-2.812 8.004-2.812 3.467 0 6.147.943 8.04 2.83 1.892 1.887 2.838 4.463 2.838 7.73Zm-7.837 4.829c.413-.507.722-1.118.929-1.831.206-.713.31-1.701.31-2.963 0-1.167-.107-2.146-.319-2.936-.212-.79-.507-1.421-.884-1.893a3.103 3.103 0 0 0-1.362-1.026c-.531-.2-1.103-.3-1.716-.3-.614 0-1.159.082-1.637.247-.477.165-.934.495-1.37.99-.39.46-.7 1.092-.929 1.893-.23.802-.345 1.81-.345 3.025 0 1.085.1 2.026.3 2.822.201.796.496 1.435.885 1.919.378.46.829.796 1.353 1.008.525.212 1.124.318 1.796.318.578 0 1.129-.097 1.654-.291a3.03 3.03 0 0 0 1.335-.982Zm34.216-4.83c0 3.267-.952 5.841-2.857 7.722-1.904 1.88-4.578 2.821-8.022 2.821-3.443 0-6.117-.94-8.021-2.821-1.905-1.881-2.857-4.455-2.857-7.721 0-3.29.958-5.873 2.874-7.748 1.917-1.875 4.585-2.812 8.004-2.812 3.467 0 6.147.943 8.04 2.83 1.893 1.887 2.839 4.463 2.839 7.73Zm-7.836 4.83c.413-.507.722-1.118.929-1.831.206-.713.31-1.701.31-2.963 0-1.167-.107-2.146-.32-2.936-.212-.79-.506-1.421-.884-1.893a3.103 3.103 0 0 0-1.362-1.026c-.53-.2-1.102-.3-1.716-.3-.613 0-1.158.082-1.636.247-.477.165-.934.495-1.37.99-.39.46-.7 1.092-.93 1.893-.23.802-.344 1.81-.344 3.025 0 1.085.1 2.026.3 2.822.201.796.496 1.435.885 1.919.377.46.828.796 1.353 1.008.525.212 1.123.318 1.796.318.577 0 1.129-.097 1.653-.291a3.03 3.03 0 0 0 1.336-.982Z"/>
    <circle cx="19.5" cy="19.5" r="19.5" fill="#DB001B" fill-rule="nonzero"/>
    <path fill="#FFF" fill-rule="nonzero"
          d="M22.2 18.454c-1.154 0-2 .923-2 2 0 1.154.923 2 2 2 1.154 0 2-.923 2-2s-.923-2-2-2Zm-14-2.1c-1.6 0-3 1.3-3 3 0 1.6 1.3 3 3 3s3-1.3 3-3-1.4-3-3-3Zm8.5 10.255c-.8 0-1.5.65-1.5 1.5 0 .8.65 1.5 1.5 1.5s1.5-.65 1.5-1.5-.7-1.5-1.5-1.5Zm9.846-4.983c-1.651 1.54-1.22 2.285-1.22 2.285s5.131-1.875 6.693-7.389c-.713-1.804-.757-3.175-4.946-6.06.65-.342.764-.977.28-1.496-.44-.472-1.084-.312-1.509.084-.424.396-.632 1.119.38 2.204.792.85 3.862 3.101 4.61 5.227-.728 2.53-1.457 2.505-4.288 5.145Zm-2.075 3.877c-1.4-1.9-3.8-1.5-4.6-1.4-.2-1.1-1.2-2.3-1.5-2-.3.3-.3 3.1.8 3.8.9.6 3.4-.3 3.4 2.4 0 1.7-.4 3-2.6 3-1.1 0-1.7-.6-1.1.7.7 1.5 4.1 1 5.3-1.3.5-1.1 1.4-3.7.3-5.2Zm-12.366-.574c-.16.71-.269 1.025-.174 1.323.189.597.793.069 1.393-.94 1.036-1.784 2.426-7.788 2.802-11.66.366-.247 4.785 1.718 6.294 1.424.68-.097 1.906-1.285.344-3.127-.276.066-.182.364-1.086.13-3.326-1.135-6.194-2.698-7.66-1.71-.88.594-.404 2.565-.897 7.843-.373 1.82-.466 4.054-1.016 6.717Z"/>
</svg>
