<?xml version="1.0" standalone="no"?>
<!DOCTYPE svg PUBLIC "-//W3C//DTD SVG 20010904//EN"
 "http://www.w3.org/TR/2001/REC-SVG-20010904/DTD/svg10.dtd">
<svg version="1.0" xmlns="http://www.w3.org/2000/svg"
 width="700.000000pt" height="700.000000pt" viewBox="0 0 700.000000 700.000000"
 preserveAspectRatio="xMidYMid meet">
<metadata>
Created by potrace 1.14, written by Peter Selinger 2001-2017
</metadata>
<g transform="translate(0.000000,700.000000) scale(0.100000,-0.100000)"
fill="#000000" stroke="none">
<path d="M3280 6994 c-19 -2 -84 -9 -145 -14 -639 -62 -1264 -315 -1795 -726
-149 -115 -481 -446 -595 -594 -410 -532 -653 -1132 -727 -1795 -17 -155 -17
-575 0 -730 75 -673 332 -1300 748 -1820 114 -143 339 -372 484 -494 537 -451
1163 -717 1885 -803 142 -17 586 -17 730 0 682 79 1268 318 1802 734 138 107
389 351 512 498 451 538 717 1162 803 1885 16 139 16 595 0 730 -77 629 -275
1158 -620 1649 -234 333 -577 668 -917 896 -460 308 -968 495 -1535 566 -117
15 -552 27 -630 18z m1590 -1575 c109 -62 120 -213 19 -277 l-30 -19 118 -85
c310 -225 525 -446 625 -643 17 -33 57 -127 88 -209 l57 -150 -17 -55 c-116
-374 -361 -723 -686 -977 -134 -106 -396 -263 -481 -288 -21 -7 -23 -4 -23 37
0 143 95 258 521 630 254 221 325 299 385 423 39 81 84 208 84 236 0 24 -53
128 -103 203 -105 156 -252 310 -545 574 -237 212 -302 301 -302 411 0 66 18
108 65 149 74 64 155 79 225 40z m-1892 -263 c117 -30 228 -68 551 -191 415
-156 456 -167 522 -128 28 17 29 16 54 -7 15 -14 45 -61 67 -106 87 -176 50
-336 -94 -408 -116 -58 -310 -21 -908 170 -96 31 -198 58 -225 61 l-51 5 -13
-118 c-61 -557 -261 -1430 -416 -1817 -105 -261 -266 -438 -315 -346 -16 29
-11 101 14 221 39 180 72 389 116 728 22 173 49 367 60 430 25 145 46 449 60
840 16 472 33 577 103 636 90 76 253 86 475 30z m-1369 -1111 c94 -25 163 -65
237 -139 144 -144 194 -324 144 -520 -60 -237 -268 -396 -515 -396 -244 0
-450 157 -521 395 -27 90 -23 221 8 311 58 167 176 282 348 341 78 27 215 31
299 8z m2517 -389 c71 -33 144 -103 180 -173 26 -53 29 -67 29 -158 0 -95 -2
-103 -34 -163 -41 -75 -94 -125 -170 -160 -47 -23 -70 -27 -146 -27 -82 0 -97
3 -157 33 -74 36 -133 96 -170 170 -20 40 -23 63 -23 152 0 95 3 110 27 156
36 69 69 106 126 143 101 65 232 75 338 27z m-761 -636 c63 -39 149 -173 185
-290 l18 -54 43 4 c24 3 112 5 194 5 174 -1 237 -14 360 -75 133 -66 240 -176
284 -295 64 -169 40 -431 -65 -713 -76 -204 -182 -325 -366 -418 -208 -105
-456 -106 -573 -2 -56 49 -114 183 -92 212 11 14 21 14 107 0 167 -28 341 0
432 69 58 44 104 115 130 201 19 60 22 95 23 221 0 183 -14 233 -84 305 -61
62 -126 86 -310 111 -80 11 -164 28 -186 38 -72 32 -127 117 -167 258 -19 66
-22 103 -23 238 0 207 13 233 90 185z m-269 -815 c144 -60 211 -235 142 -370
-51 -97 -128 -145 -238 -145 -106 0 -194 53 -243 145 -17 31 -22 57 -22 120 0
90 19 136 77 192 71 68 198 94 284 58z"/>
</g>
</svg>
